<svg width="15" height="15" viewBox="0 0 15 15" fill="none" xmlns="http://www.w3.org/2000/svg">
<path d="M0 15C0 13.6125 0.1845 12.4282 0.5535 11.4472C0.9225 10.4662 1.394 9.6505 1.968 9C2.543 8.35 3.18675 7.84675 3.89925 7.49025C4.61175 7.13375 5.312 6.887 6 6.75V4.5C4.2875 4.2875 2.8595 3.75925 1.716 2.91525C0.5725 2.07125 0.0005 1.0995 0 0H15C15 1.1 14.4282 2.072 13.2847 2.916C12.1412 3.76 10.713 4.288 9 4.5V6.75C9.6875 6.8875 10.3875 7.1345 11.1 7.491C11.8125 7.8475 12.4562 8.3505 13.0312 9C13.6062 9.65 14.0782 10.4657 14.4472 11.4472C14.8162 12.4287 15.0005 13.613 15 15H10.5V13.5H13.4062C13.1812 11.6 12.4717 10.225 11.2777 9.375C10.0837 8.525 8.8245 8.1 7.5 8.1C6.175 8.1 4.9155 8.525 3.7215 9.375C2.5275 10.225 1.81825 11.6 1.59375 13.5H4.5V15H0ZM7.5 3.09375C8.6375 3.09375 9.65 2.94075 10.5375 2.63475C11.425 2.32875 12.1312 1.9505 12.6562 1.5H2.34375C2.86875 1.95 3.575 2.32825 4.4625 2.63475C5.35 2.94125 6.3625 3.09425 7.5 3.09375ZM7.5 15C7.0875 15 6.7345 14.8532 6.441 14.5597C6.1475 14.2662 6.0005 13.913 6 13.5C6 13.2875 6.04075 13.0937 6.12225 12.9187C6.20375 12.7437 6.313 12.5875 6.45 12.45C6.75 12.15 7.25625 11.8342 7.96875 11.5027C8.68125 11.1712 9.525 10.837 10.5 10.5C10.15 11.475 9.8125 12.3187 9.4875 13.0312C9.1625 13.7437 8.85 14.25 8.55 14.55C8.4125 14.6875 8.25625 14.797 8.08125 14.8785C7.90625 14.96 7.7125 15.0005 7.5 15Z" fill="#858181"/>
</svg>
